# xmcd CD database file
#
# Track frame offsets:
#	150
#	11987
#	23682
#	31112
#	44690
#	54545
#	64397
#	79427
#	96427
#	114597
#	129252
#	146632
#	161777
#	177640
#
# Disc length: 2545 seconds
#
# Revision: 0
# Processed by: cddbd v1.5.1PL0 Copyright (c) Steve Scherf et al.
# Submitted via: CDex 1.51
#
DISCID=cc09ef0e
DTITLE=Various Artist - 美しい日本の子守唄
DYEAR=1900
DGENRE=Vocal
TTITLE0=五木の子守唄
TTITLE1=中国地方の子守唄
TTITLE2=大分地方の子守唄
TTITLE3=奄美の子守唄
TTITLE4=宮古の子守唄
TTITLE5=もりさこもりさ
TTITLE6=赤い山青い山白い山
TTITLE7=島原地方の子守唄
TTITLE8=子もりうた
TTITLE9=大阪の子守唄
TTITLE10=岡崎地方の子守唄
TTITLE11=越後の子守唄
TTITLE12=飛騨の子守唄
TTITLE13=江戸子守唄
EXTD=
EXTT0=
EXTT1=
EXTT2=
EXTT3=
EXTT4=
EXTT5=
EXTT6=
EXTT7=
EXTT8=
EXTT9=
EXTT10=
EXTT11=
EXTT12=
EXTT13=
PLAYORDER=
